<svg width="625" height="241" viewBox="0 0 625 241" fill="none" xmlns="http://www.w3.org/2000/svg">
<g clip-path="url(#clip0_50_9)">
<path d="M7.35294 191.647H14.7059V199H7.35294V191.647ZM14.7059 191.647H22.0588V199H14.7059V191.647ZM22.0588 191.647H29.4118V199H22.0588V191.647ZM29.4118 191.647H36.7647V199H29.4118V191.647ZM29.4118 184.294H36.7647V191.647H29.4118V184.294ZM29.4118 176.941H36.7647V184.294H29.4118V176.941ZM29.4118 169.588H36.7647V176.941H29.4118V169.588ZM29.4118 162.235H36.7647V169.588H29.4118V162.235ZM22.0588 162.235H29.4118V169.588H22.0588V162.235ZM14.7059 162.235H22.0588V169.588H14.7059V162.235ZM14.7059 169.588H22.0588V176.941H14.7059V169.588ZM14.7059 176.941H22.0588V184.294H14.7059V176.941ZM7.35294 176.941H14.7059V184.294H7.35294V176.941ZM7.35294 184.294H14.7059V191.647H7.35294V184.294ZM14.7059 184.294H22.0588V191.647H14.7059V184.294ZM22.0588 184.294H29.4118V191.647H22.0588V184.294ZM22.0588 176.941H29.4118V184.294H22.0588V176.941ZM22.0588 169.588H29.4118V176.941H22.0588V169.588ZM7.35294 169.588H14.7059V176.941H7.35294V169.588ZM7.35294 162.235H14.7059V169.588H7.35294V162.235ZM7.35294 154.882H14.7059V162.235H7.35294V154.882ZM7.35294 147.529H14.7059V154.882H7.35294V147.529ZM7.35294 140.176H14.7059V147.529H7.35294V140.176ZM7.35294 132.824H14.7059V140.176H7.35294V132.824ZM7.35294 125.471H14.7059V132.824H7.35294V125.471ZM7.35294 118.118H14.7059V125.471H7.35294V118.118ZM7.35294 110.765H14.7059V118.118H7.35294V110.765ZM7.35294 103.412H14.7059V110.765H7.35294V103.412ZM7.35294 96.0588H14.7059V103.412H7.35294V96.0588ZM14.7059 96.0588H22.0588V103.412H14.7059V96.0588ZM22.0588 96.0588H29.4118V103.412H22.0588V96.0588ZM22.0588 103.412H29.4118V110.765H22.0588V103.412ZM29.4118 103.412H36.7647V110.765H29.4118V103.412ZM29.4118 110.765H36.7647V118.118H29.4118V110.765ZM29.4118 118.118H36.7647V125.471H29.4118V118.118ZM29.4118 125.471H36.7647V132.824H29.4118V125.471ZM29.4118 140.176H36.7647V147.529H29.4118V140.176ZM29.4118 147.529H36.7647V154.882H29.4118V147.529ZM29.4118 154.882H36.7647V162.235H29.4118V154.882ZM22.0588 154.882H29.4118V162.235H22.0588V154.882ZM22.0588 147.529H29.4118V154.882H22.0588V147.529ZM22.0588 140.176H29.4118V147.529H22.0588V140.176ZM22.0588 132.824H29.4118V140.176H22.0588V132.824ZM22.0588 125.471H29.4118V132.824H22.0588V125.471ZM22.0588 118.118H29.4118V125.471H22.0588V118.118ZM22.0588 110.765H29.4118V118.118H22.0588V110.765ZM14.7059 110.765H22.0588V118.118H14.7059V110.765ZM14.7059 103.412H22.0588V110.765H14.7059V103.412ZM14.7059 118.118H22.0588V125.471H14.7059V118.118ZM14.7059 125.471H22.0588V132.824H14.7059V125.471ZM14.7059 140.176H22.0588V147.529H14.7059V140.176ZM14.7059 147.529H22.0588V154.882H14.7059V147.529ZM14.7059 154.882H22.0588V162.235H14.7059V154.882ZM14.7059 132.824H22.0588V140.176H14.7059V132.824ZM29.4118 132.824H36.7647V140.176H29.4118V132.824ZM36.7647 132.824H44.1176V140.176H36.7647V132.824ZM51.4706 132.824H58.8235V140.176H51.4706V132.824ZM58.8235 132.824H66.1765V140.176H58.8235V132.824ZM66.1765 132.824H73.5294V140.176H66.1765V132.824ZM73.5294 132.824H80.8823V140.176H73.5294V132.824ZM80.8823 132.824H88.2353V140.176H80.8823V132.824ZM88.2353 132.824H95.5882V140.176H88.2353V132.824ZM88.2353 140.176H95.5882V147.529H88.2353V140.176ZM88.2353 147.529H95.5882V154.882H88.2353V147.529ZM88.2353 154.882H95.5882V162.235H88.2353V154.882ZM80.8823 154.882H88.2353V162.235H80.8823V154.882ZM73.5294 154.882H80.8823V162.235H73.5294V154.882ZM66.1765 154.882H73.5294V162.235H66.1765V154.882ZM58.8235 154.882H66.1765V162.235H58.8235V154.882ZM51.4706 147.529H58.8235V154.882H51.4706V147.529ZM44.1176 147.529H51.4706V154.882H44.1176V147.529ZM36.7647 147.529H44.1176V154.882H36.7647V147.529ZM36.7647 140.176H44.1176V147.529H36.7647V140.176ZM44.1176 132.824H51.4706V140.176H44.1176V132.824ZM44.1176 140.176H51.4706V147.529H44.1176V140.176ZM36.7647 154.882H44.1176V162.235H36.7647V154.882ZM44.1176 154.882H51.4706V162.235H44.1176V154.882ZM51.4706 154.882H58.8235V162.235H51.4706V154.882ZM66.1765 147.529H73.5294V154.882H66.1765V147.529ZM66.1765 140.176H73.5294V147.529H66.1765V140.176ZM58.8235 140.176H66.1765V147.529H58.8235V140.176ZM51.4706 140.176H58.8235V147.529H51.4706V140.176ZM58.8235 147.529H66.1765V154.882H58.8235V147.529ZM73.5294 140.176H80.8823V147.529H73.5294V140.176ZM80.8823 140.176H88.2353V147.529H80.8823V140.176ZM80.8823 147.529H88.2353V154.882H80.8823V147.529ZM73.5294 147.529H80.8823V154.882H73.5294V147.529ZM80.8823 162.235H88.2353V169.588H80.8823V162.235ZM80.8823 169.588H88.2353V176.941H80.8823V169.588ZM80.8823 176.941H88.2353V184.294H80.8823V176.941ZM80.8823 184.294H88.2353V191.647H80.8823V184.294ZM88.2353 184.294H95.5882V191.647H88.2353V184.294ZM88.2353 191.647H95.5882V199H88.2353V191.647ZM95.5882 191.647H102.941V199H95.5882V191.647ZM80.8823 191.647H88.2353V199H80.8823V191.647ZM95.5882 147.529H102.941V154.882H95.5882V147.529ZM95.5882 140.176H102.941V147.529H95.5882V140.176ZM95.5882 132.824H102.941V140.176H95.5882V132.824ZM95.5882 125.471H102.941V132.824H95.5882V125.471ZM95.5882 96.0588H102.941V103.412H95.5882V96.0588ZM95.5882 103.412H102.941V110.765H95.5882V103.412ZM88.2353 103.412H95.5882V110.765H88.2353V103.412ZM88.2353 110.765H95.5882V118.118H88.2353V110.765ZM88.2353 118.118H95.5882V125.471H88.2353V118.118ZM88.2353 125.471H95.5882V132.824H88.2353V125.471ZM95.5882 118.118H102.941V125.471H95.5882V118.118ZM95.5882 110.765H102.941V118.118H95.5882V110.765ZM80.8823 103.412H88.2353V110.765H80.8823V103.412ZM80.8823 110.765H88.2353V118.118H80.8823V110.765ZM80.8823 118.118H88.2353V125.471H80.8823V118.118ZM80.8823 125.471H88.2353V132.824H80.8823V125.471ZM88.2353 162.235H95.5882V169.588H88.2353V162.235ZM88.2353 169.588H95.5882V176.941H88.2353V169.588ZM88.2353 176.941H95.5882V184.294H88.2353V176.941ZM95.5882 176.941H102.941V184.294H95.5882V176.941ZM95.5882 169.588H102.941V176.941H95.5882V169.588ZM95.5882 162.235H102.941V169.588H95.5882V162.235ZM95.5882 154.882H102.941V162.235H95.5882V154.882ZM95.5882 184.294H102.941V191.647H95.5882V184.294ZM14.7059 88.7059H22.0588V96.0588H14.7059V88.7059ZM22.0588 88.7059H29.4118V96.0588H22.0588V88.7059ZM29.4118 88.7059H36.7647V96.0588H29.4118V88.7059ZM36.7647 88.7059H44.1176V96.0588H36.7647V88.7059ZM44.1176 88.7059H51.4706V96.0588H44.1176V88.7059ZM58.8235 88.7059H66.1765V96.0588H58.8235V88.7059ZM66.1765 88.7059H73.5294V96.0588H66.1765V88.7059ZM73.5294 88.7059H80.8823V96.0588H73.5294V88.7059ZM80.8823 88.7059H88.2353V96.0588H80.8823V88.7059ZM88.2353 88.7059H95.5882V96.0588H88.2353V88.7059ZM88.2353 96.0588H95.5882V103.412H88.2353V96.0588ZM80.8823 96.0588H88.2353V103.412H80.8823V96.0588ZM73.5294 96.0588H80.8823V103.412H73.5294V96.0588ZM66.1765 96.0588H73.5294V103.412H66.1765V96.0588ZM29.4118 96.0588H36.7647V103.412H29.4118V96.0588ZM36.7647 96.0588H44.1176V103.412H36.7647V96.0588ZM22.0588 81.3529H29.4118V88.7059H22.0588V81.3529ZM29.4118 81.3529H36.7647V88.7059H29.4118V81.3529ZM44.1176 81.3529H51.4706V88.7059H44.1176V81.3529ZM51.4706 81.3529H58.8235V88.7059H51.4706V81.3529ZM58.8235 81.3529H66.1765V88.7059H58.8235V81.3529ZM66.1765 81.3529H73.5294V88.7059H66.1765V81.3529ZM73.5294 81.3529H80.8823V88.7059H73.5294V81.3529ZM80.8823 81.3529H88.2353V88.7059H80.8823V81.3529ZM88.2353 81.3529H95.5882V88.7059H88.2353V81.3529ZM80.8823 74H88.2353V81.3529H80.8823V74ZM73.5294 74H80.8823V81.3529H73.5294V74ZM66.1765 74H73.5294V81.3529H66.1765V74ZM58.8235 74H66.1765V81.3529H58.8235V74ZM51.4706 74H58.8235V81.3529H51.4706V74ZM36.7647 81.3529H44.1176V88.7059H36.7647V81.3529ZM29.4118 74H36.7647V81.3529H29.4118V74ZM36.7647 74H44.1176V81.3529H36.7647V74ZM44.1176 74H51.4706V81.3529H44.1176V74ZM44.1176 66.6471H51.4706V74H44.1176V66.6471ZM36.7647 66.6471H44.1176V74H36.7647V66.6471ZM51.4706 66.6471H58.8235V74H51.4706V66.6471ZM58.8235 66.6471H66.1765V74H58.8235V66.6471ZM66.1765 66.6471H73.5294V74H66.1765V66.6471ZM73.5294 66.6471H80.8823V74H73.5294V66.6471ZM44.1176 59.2941H51.4706V66.6471H44.1176V59.2941ZM51.4706 59.2941H58.8235V66.6471H51.4706V59.2941ZM58.8235 59.2941H66.1765V66.6471H58.8235V59.2941ZM66.1765 59.2941H73.5294V66.6471H66.1765V59.2941ZM51.4706 51.9412H58.8235V59.2941H51.4706V51.9412ZM58.8235 51.9412H66.1765V59.2941H58.8235V51.9412ZM95.5882 88.7059H102.941V96.0588H95.5882V88.7059ZM7.35294 88.7059H14.7059V96.0588H7.35294V88.7059ZM14.7059 81.3529H22.0588V88.7059H14.7059V81.3529ZM22.0588 74H29.4118V81.3529H22.0588V74ZM29.4118 66.6471H36.7647V74H29.4118V66.6471ZM36.7647 59.2941H44.1176V66.6471H36.7647V59.2941ZM44.1176 51.9412H51.4706V59.2941H44.1176V51.9412ZM73.5294 103.412H80.8823V110.765H73.5294V103.412ZM73.5294 110.765H80.8823V118.118H73.5294V110.765ZM73.5294 118.118H80.8823V125.471H73.5294V118.118ZM73.5294 125.471H80.8823V132.824H73.5294V125.471ZM73.5294 162.235H80.8823V169.588H73.5294V162.235ZM73.5294 169.588H80.8823V176.941H73.5294V169.588ZM73.5294 176.941H80.8823V184.294H73.5294V176.941ZM73.5294 184.294H80.8823V191.647H73.5294V184.294ZM73.5294 191.647H80.8823V199H73.5294V191.647ZM132.382 96.0588H139.735V103.412H132.382V96.0588ZM132.382 103.412H139.735V110.765H132.382V103.412ZM132.382 110.765H139.735V118.118H132.382V110.765ZM132.382 118.118H139.735V125.471H132.382V118.118ZM132.382 125.471H139.735V132.824H132.382V125.471ZM125.029 125.471H132.382V132.824H125.029V125.471ZM125.029 118.118H132.382V125.471H125.029V118.118ZM125.029 110.765H132.382V118.118H125.029V110.765ZM125.029 103.412H132.382V110.765H125.029V103.412ZM125.029 96.0588H132.382V103.412H125.029V96.0588ZM125.029 169.588H132.382V176.941H125.029V169.588ZM125.029 162.235H132.382V169.588H125.029V162.235ZM125.029 154.882H132.382V162.235H125.029V154.882ZM125.029 147.529H132.382V154.882H125.029V147.529ZM132.382 140.176H139.735V147.529H132.382V140.176ZM132.382 132.824H139.735V140.176H132.382V132.824ZM125.029 132.824H132.382V140.176H125.029V132.824ZM125.029 140.176H132.382V147.529H125.029V140.176ZM125.029 176.941H132.382V184.294H125.029V176.941ZM125.029 184.294H132.382V191.647H125.029V184.294ZM125.029 191.647H132.382V199H125.029V191.647ZM147.088 96.0588H154.44V103.412H147.088V96.0588ZM147.088 103.412H154.44V110.765H147.088V103.412ZM147.088 110.765H154.44V118.118H147.088V110.765ZM147.088 118.118H154.44V125.471H147.088V118.118ZM147.088 125.471H154.44V132.824H147.088V125.471ZM147.088 132.824H154.44V140.176H147.088V132.824ZM147.088 140.176H154.44V147.529H147.088V140.176ZM147.088 147.529H154.44V154.882H147.088V147.529ZM147.088 154.882H154.44V162.235H147.088V154.882ZM147.088 162.235H154.44V169.588H147.088V162.235ZM147.088 169.588H154.44V176.941H147.088V169.588ZM147.088 176.941H154.44V184.294H147.088V176.941ZM147.088 184.294H154.44V191.647H147.088V184.294ZM147.088 191.647H154.44V199H147.088V191.647ZM139.735 191.647H147.088V199H139.735V191.647ZM132.382 191.647H139.735V199H132.382V191.647ZM132.382 184.294H139.735V191.647H132.382V184.294ZM139.735 184.294H147.088V191.647H139.735V184.294ZM139.735 176.941H147.088V184.294H139.735V176.941ZM132.382 169.588H139.735V176.941H132.382V169.588ZM132.382 162.235H139.735V169.588H132.382V162.235ZM132.382 154.882H139.735V162.235H132.382V154.882ZM139.735 154.882H147.088V162.235H139.735V154.882ZM139.735 162.235H147.088V169.588H139.735V162.235ZM139.735 169.588H147.088V176.941H139.735V169.588ZM132.382 176.941H139.735V184.294H132.382V176.941ZM139.735 147.529H147.088V154.882H139.735V147.529ZM139.735 140.176H147.088V147.529H139.735V140.176ZM139.735 132.824H147.088V140.176H139.735V132.824ZM132.382 147.529H139.735V154.882H132.382V147.529ZM139.735 125.471H147.088V132.824H139.735V125.471ZM139.735 118.118H147.088V125.471H139.735V118.118ZM139.735 110.765H147.088V118.118H139.735V110.765ZM139.735 103.412H147.088V110.765H139.735V103.412ZM139.735 96.0588H147.088V103.412H139.735V96.0588ZM147.088 51.9412H154.44V59.2941H147.088V51.9412ZM139.735 59.2941H147.088V66.6471H139.735V59.2941ZM139.735 44.5882H147.088V51.9412H139.735V44.5882ZM132.382 51.9412H139.735V59.2941H132.382V51.9412ZM139.735 51.9412H147.088V59.2941H139.735V51.9412ZM132.382 44.5882H139.735V51.9412H132.382V44.5882ZM132.382 59.2941H139.735V66.6471H132.382V59.2941ZM147.088 59.2941H154.44V66.6471H147.088V59.2941ZM125.029 51.9412H132.382V59.2941H125.029V51.9412ZM125.029 59.2941H132.382V66.6471H125.029V59.2941ZM132.382 66.6471H139.735V74H132.382V66.6471ZM139.735 66.6471H147.088V74H139.735V66.6471ZM125.029 44.5882H132.382V51.9412H125.029V44.5882ZM147.088 44.5882H154.44V51.9412H147.088V44.5882ZM147.088 66.6471H154.44V74H147.088V66.6471ZM125.029 66.6471H132.382V74H125.029V66.6471Z" fill="white"/>
<rect x="203" y="6" width="420" height="235" rx="25" fill="#F8331D"/>
<path d="M249.353 52.9412H256.706V60.2941H249.353V52.9412ZM256.706 52.9412H264.059V60.2941H256.706V52.9412ZM264.059 52.9412H271.412V60.2941H264.059V52.9412ZM271.412 52.9412H278.765V60.2941H271.412V52.9412ZM271.412 60.2941H278.765V67.6471H271.412V60.2941ZM271.412 67.6471H278.765V75H271.412V67.6471ZM264.059 67.6471H271.412V75H264.059V67.6471ZM256.706 67.6471H264.059V75H256.706V67.6471ZM256.706 60.2941H264.059V67.6471H256.706V60.2941ZM249.353 60.2941H256.706V67.6471H249.353V60.2941ZM264.059 60.2941H271.412V67.6471H264.059V60.2941ZM249.353 67.6471H256.706V75H249.353V67.6471ZM249.353 75H256.706V82.3529H249.353V75ZM249.353 82.3529H256.706V89.7059H249.353V82.3529ZM256.706 82.3529H264.059V89.7059H256.706V82.3529ZM264.059 82.3529H271.412V89.7059H264.059V82.3529ZM271.412 82.3529H278.765V89.7059H271.412V82.3529ZM271.412 75H278.765V82.3529H271.412V75ZM264.059 75H271.412V82.3529H264.059V75ZM256.706 75H264.059V82.3529H256.706V75ZM249.353 89.7059H256.706V97.0588H249.353V89.7059ZM256.706 89.7059H264.059V97.0588H256.706V89.7059ZM264.059 89.7059H271.412V97.0588H264.059V89.7059ZM249.353 104.412H256.706V111.765H249.353V104.412ZM249.353 97.0588H256.706V104.412H249.353V97.0588ZM264.059 192.647H271.412V200H264.059V192.647ZM256.706 192.647H264.059V200H256.706V192.647ZM249.353 185.294H256.706V192.647H249.353V185.294ZM249.353 177.941H256.706V185.294H249.353V177.941ZM249.353 192.647H256.706V200H249.353V192.647ZM286.118 89.7059H293.471V97.0588H286.118V89.7059ZM271.412 89.7059H278.765V97.0588H271.412V89.7059ZM293.471 89.7059H300.824V97.0588H293.471V89.7059ZM300.824 89.7059H308.176V97.0588H300.824V89.7059ZM308.176 89.7059H315.529V97.0588H308.176V89.7059ZM315.529 89.7059H322.882V97.0588H315.529V89.7059ZM322.882 97.0588H330.235V104.412H322.882V97.0588ZM315.529 97.0588H322.882V104.412H315.529V97.0588ZM315.529 104.412H322.882V111.765H315.529V104.412ZM330.235 97.0588H337.588V104.412H330.235V97.0588ZM330.235 104.412H337.588V111.765H330.235V104.412ZM322.882 104.412H330.235V111.765H322.882V104.412ZM315.529 111.765H322.882V119.118H315.529V111.765ZM308.176 111.765H315.529V119.118H308.176V111.765ZM322.882 111.765H330.235V119.118H322.882V111.765ZM330.235 111.765H337.588V119.118H330.235V111.765ZM337.588 111.765H344.941V119.118H337.588V111.765ZM337.588 119.118H344.941V126.471H337.588V119.118ZM337.588 126.471H344.941V133.824H337.588V126.471ZM337.588 133.824H344.941V141.176H337.588V133.824ZM337.588 141.176H344.941V148.529H337.588V141.176ZM337.588 148.529H344.941V155.882H337.588V148.529ZM337.588 155.882H344.941V163.235H337.588V155.882ZM337.588 163.235H344.941V170.588H337.588V163.235ZM337.588 170.588H344.941V177.941H337.588V170.588ZM330.235 170.588H337.588V177.941H330.235V170.588ZM330.235 177.941H337.588V185.294H330.235V177.941ZM330.235 185.294H337.588V192.647H330.235V185.294ZM322.882 185.294H330.235V192.647H322.882V185.294ZM315.529 185.294H322.882V192.647H315.529V185.294ZM315.529 170.588H322.882V177.941H315.529V170.588ZM315.529 177.941H322.882V185.294H315.529V177.941ZM322.882 177.941H330.235V185.294H322.882V177.941ZM322.882 170.588H330.235V177.941H322.882V170.588ZM322.882 163.235H330.235V170.588H322.882V163.235ZM315.529 163.235H322.882V170.588H315.529V163.235ZM315.529 155.882H322.882V163.235H315.529V155.882ZM315.529 148.529H322.882V155.882H315.529V148.529ZM315.529 141.176H322.882V148.529H315.529V141.176ZM315.529 133.824H322.882V141.176H315.529V133.824ZM315.529 126.471H322.882V133.824H315.529V126.471ZM315.529 119.118H322.882V126.471H315.529V119.118ZM322.882 119.118H330.235V126.471H322.882V119.118ZM322.882 126.471H330.235V133.824H322.882V126.471ZM322.882 133.824H330.235V141.176H322.882V133.824ZM322.882 141.176H330.235V148.529H322.882V141.176ZM322.882 148.529H330.235V155.882H322.882V148.529ZM322.882 155.882H330.235V163.235H322.882V155.882ZM330.235 163.235H337.588V170.588H330.235V163.235ZM330.235 155.882H337.588V163.235H330.235V155.882ZM330.235 148.529H337.588V155.882H330.235V148.529ZM330.235 141.176H337.588V148.529H330.235V141.176ZM330.235 133.824H337.588V141.176H330.235V133.824ZM330.235 126.471H337.588V133.824H330.235V126.471ZM330.235 119.118H337.588V126.471H330.235V119.118ZM315.529 192.647H322.882V200H315.529V192.647ZM271.412 192.647H278.765V200H271.412V192.647ZM271.412 185.294H278.765V192.647H271.412V185.294ZM264.059 185.294H271.412V192.647H264.059V185.294ZM256.706 185.294H264.059V192.647H256.706V185.294ZM256.706 126.471H264.059V133.824H256.706V126.471ZM256.706 119.118H264.059V126.471H256.706V119.118ZM249.353 111.765H256.706V119.118H249.353V111.765ZM256.706 104.412H264.059V111.765H256.706V104.412ZM264.059 97.0588H271.412V104.412H264.059V97.0588ZM271.412 97.0588H278.765V104.412H271.412V97.0588ZM278.765 97.0588H286.118V104.412H278.765V97.0588ZM278.765 104.412H286.118V111.765H278.765V104.412ZM278.765 111.765H286.118V119.118H278.765V111.765ZM271.412 111.765H278.765V119.118H271.412V111.765ZM264.059 111.765H271.412V119.118H264.059V111.765ZM271.412 119.118H278.765V126.471H271.412V119.118ZM271.412 126.471H278.765V133.824H271.412V126.471ZM271.412 133.824H278.765V141.176H271.412V133.824ZM271.412 177.941H278.765V185.294H271.412V177.941ZM264.059 177.941H271.412V185.294H264.059V177.941ZM264.059 126.471H271.412V133.824H264.059V126.471ZM264.059 119.118H271.412V126.471H264.059V119.118ZM264.059 104.412H271.412V111.765H264.059V104.412ZM271.412 104.412H278.765V111.765H271.412V104.412ZM286.118 97.0588H293.471V104.412H286.118V97.0588ZM293.471 97.0588H300.824V104.412H293.471V97.0588ZM300.824 97.0588H308.176V104.412H300.824V97.0588ZM308.176 97.0588H315.529V104.412H308.176V97.0588ZM308.176 104.412H315.529V111.765H308.176V104.412ZM300.824 104.412H308.176V111.765H300.824V104.412ZM293.471 104.412H300.824V111.765H293.471V104.412ZM286.118 104.412H293.471V111.765H286.118V104.412ZM256.706 97.0588H264.059V104.412H256.706V97.0588ZM256.706 177.941H264.059V185.294H256.706V177.941ZM256.706 111.765H264.059V119.118H256.706V111.765ZM249.353 119.118H256.706V126.471H249.353V119.118ZM249.353 126.471H256.706V133.824H249.353V126.471ZM249.353 170.588H256.706V177.941H249.353V170.588ZM256.706 170.588H264.059V177.941H256.706V170.588ZM264.059 170.588H271.412V177.941H264.059V170.588ZM271.412 170.588H278.765V177.941H271.412V170.588ZM264.059 133.824H271.412V141.176H264.059V133.824ZM256.706 133.824H264.059V141.176H256.706V133.824ZM249.353 133.824H256.706V141.176H249.353V133.824ZM249.353 141.176H256.706V148.529H249.353V141.176ZM249.353 148.529H256.706V155.882H249.353V148.529ZM249.353 155.882H256.706V163.235H249.353V155.882ZM256.706 155.882H264.059V163.235H256.706V155.882ZM256.706 163.235H264.059V170.588H256.706V163.235ZM264.059 163.235H271.412V170.588H264.059V163.235ZM249.353 163.235H256.706V170.588H249.353V163.235ZM271.412 163.235H278.765V170.588H271.412V163.235ZM271.412 155.882H278.765V163.235H271.412V155.882ZM271.412 148.529H278.765V155.882H271.412V148.529ZM271.412 141.176H278.765V148.529H271.412V141.176ZM264.059 141.176H271.412V148.529H264.059V141.176ZM256.706 141.176H264.059V148.529H256.706V141.176ZM256.706 148.529H264.059V155.882H256.706V148.529ZM264.059 155.882H271.412V163.235H264.059V155.882ZM264.059 148.529H271.412V155.882H264.059V148.529ZM322.882 192.647H330.235V200H322.882V192.647ZM330.235 192.647H337.588V200H330.235V192.647ZM337.588 192.647H344.941V200H337.588V192.647ZM337.588 185.294H344.941V192.647H337.588V185.294ZM337.588 177.941H344.941V185.294H337.588V177.941ZM462.617 200H455.264V192.647H462.617V200ZM455.264 200H447.911V192.647H455.264V200ZM447.911 200H440.558V192.647H447.911V200ZM462.617 185.294H455.264V177.941H462.617V185.294ZM462.617 192.647H455.264V185.294H462.617V192.647ZM447.911 97.0588H440.558V89.7059H447.911V97.0588ZM455.264 97.0588H447.911V89.7059H455.264V97.0588ZM462.617 104.412H455.264V97.0588H462.617V104.412ZM462.617 111.765H455.264V104.412H462.617V111.765ZM462.617 97.0588H455.264V89.7059H462.617V97.0588ZM425.852 200H418.499V192.647H425.852V200ZM440.558 200H433.205V192.647H440.558V200ZM418.499 200H411.146V192.647H418.499V200ZM411.146 200H403.793V192.647H411.146V200ZM403.793 200H396.44V192.647H403.793V200ZM396.44 200H389.088V192.647H396.44V200ZM389.088 192.647H381.735V185.294H389.088V192.647ZM396.44 192.647H389.088V185.294H396.44V192.647ZM396.44 185.294H389.088V177.941H396.44V185.294ZM381.735 192.647H374.382V185.294H381.735V192.647ZM381.735 185.294H374.382V177.941H381.735V185.294ZM389.088 185.294H381.735V177.941H389.088V185.294ZM396.44 177.941H389.088V170.588H396.44V177.941ZM403.793 177.941H396.44V170.588H403.793V177.941ZM389.088 177.941H381.735V170.588H389.088V177.941ZM381.735 177.941H374.382V170.588H381.735V177.941ZM374.382 177.941H367.029V170.588H374.382V177.941ZM374.382 170.588H367.029V163.235H374.382V170.588ZM374.382 163.235H367.029V155.882H374.382V163.235ZM374.382 155.882H367.029V148.529H374.382V155.882ZM374.382 148.529H367.029V141.176H374.382V148.529ZM374.382 141.176H367.029V133.824H374.382V141.176ZM374.382 133.824H367.029V126.471H374.382V133.824ZM374.382 126.471H367.029V119.118H374.382V126.471ZM374.382 119.118H367.029V111.765H374.382V119.118ZM381.735 119.118H374.382V111.765H381.735V119.118ZM381.735 111.765H374.382V104.412H381.735V111.765ZM381.735 104.412H374.382V97.0588H381.735V104.412ZM389.088 104.412H381.735V97.0588H389.088V104.412ZM396.44 104.412H389.088V97.0588H396.44V104.412ZM396.44 119.118H389.088V111.765H396.44V119.118ZM396.44 111.765H389.088V104.412H396.44V111.765ZM389.088 111.765H381.735V104.412H389.088V111.765ZM389.088 119.118H381.735V111.765H389.088V119.118ZM389.088 126.471H381.735V119.118H389.088V126.471ZM396.44 126.471H389.088V119.118H396.44V126.471ZM396.44 133.824H389.088V126.471H396.44V133.824ZM396.44 141.176H389.088V133.824H396.44V141.176ZM396.44 148.529H389.088V141.176H396.44V148.529ZM396.44 155.882H389.088V148.529H396.44V155.882ZM396.44 163.235H389.088V155.882H396.44V163.235ZM396.44 170.588H389.088V163.235H396.44V170.588ZM389.088 170.588H381.735V163.235H389.088V170.588ZM389.088 163.235H381.735V155.882H389.088V163.235ZM389.088 155.882H381.735V148.529H389.088V155.882ZM389.088 148.529H381.735V141.176H389.088V148.529ZM389.088 141.176H381.735V133.824H389.088V141.176ZM389.088 133.824H381.735V126.471H389.088V133.824ZM381.735 126.471H374.382V119.118H381.735V126.471ZM381.735 133.824H374.382V126.471H381.735V133.824ZM381.735 141.176H374.382V133.824H381.735V141.176ZM381.735 148.529H374.382V141.176H381.735V148.529ZM381.735 155.882H374.382V148.529H381.735V155.882ZM381.735 163.235H374.382V155.882H381.735V163.235ZM381.735 170.588H374.382V163.235H381.735V170.588ZM396.44 97.0588H389.088V89.7059H396.44V97.0588ZM440.558 97.0588H433.205V89.7059H440.558V97.0588ZM440.558 104.412H433.205V97.0588H440.558V104.412ZM447.911 104.412H440.558V97.0588H447.911V104.412ZM455.264 104.412H447.911V97.0588H455.264V104.412ZM455.264 163.235H447.911V155.882H455.264V163.235ZM455.264 170.588H447.911V163.235H455.264V170.588ZM462.617 177.941H455.264V170.588H462.617V177.941ZM455.264 185.294H447.911V177.941H455.264V185.294ZM447.911 192.647H440.558V185.294H447.911V192.647ZM440.558 192.647H433.205V185.294H440.558V192.647ZM433.205 192.647H425.852V185.294H433.205V192.647ZM433.205 185.294H425.852V177.941H433.205V185.294ZM433.205 177.941H425.852V170.588H433.205V177.941ZM440.558 177.941H433.205V170.588H440.558V177.941ZM447.911 177.941H440.558V170.588H447.911V177.941ZM440.558 170.588H433.205V163.235H440.558V170.588ZM440.558 163.235H433.205V155.882H440.558V163.235ZM440.558 155.882H433.205V148.529H440.558V155.882ZM440.558 111.765H433.205V104.412H440.558V111.765ZM447.911 111.765H440.558V104.412H447.911V111.765ZM447.911 163.235H440.558V155.882H447.911V163.235ZM447.911 170.588H440.558V163.235H447.911V170.588ZM447.911 185.294H440.558V177.941H447.911V185.294ZM440.558 185.294H433.205V177.941H440.558V185.294ZM425.852 192.647H418.499V185.294H425.852V192.647ZM418.499 192.647H411.146V185.294H418.499V192.647ZM411.146 192.647H403.793V185.294H411.146V192.647ZM403.793 192.647H396.44V185.294H403.793V192.647ZM403.793 185.294H396.44V177.941H403.793V185.294ZM411.146 185.294H403.793V177.941H411.146V185.294ZM418.499 185.294H411.146V177.941H418.499V185.294ZM425.852 185.294H418.499V177.941H425.852V185.294ZM455.264 192.647H447.911V185.294H455.264V192.647ZM455.264 111.765H447.911V104.412H455.264V111.765ZM455.264 177.941H447.911V170.588H455.264V177.941ZM462.617 170.588H455.264V163.235H462.617V170.588ZM462.617 163.235H455.264V155.882H462.617V163.235ZM462.617 119.118H455.264V111.765H462.617V119.118ZM455.264 119.118H447.911V111.765H455.264V119.118ZM447.911 119.118H440.558V111.765H447.911V119.118ZM440.558 119.118H433.205V111.765H440.558V119.118ZM447.911 155.882H440.558V148.529H447.911V155.882ZM455.264 155.882H447.911V148.529H455.264V155.882ZM462.617 155.882H455.264V148.529H462.617V155.882ZM462.617 148.529H455.264V141.176H462.617V148.529ZM462.617 141.176H455.264V133.824H462.617V141.176ZM462.617 133.824H455.264V126.471H462.617V133.824ZM455.264 133.824H447.911V126.471H455.264V133.824ZM455.264 126.471H447.911V119.118H455.264V126.471ZM447.911 126.471H440.558V119.118H447.911V126.471ZM462.617 126.471H455.264V119.118H462.617V126.471ZM440.558 126.471H433.205V119.118H440.558V126.471ZM440.558 133.824H433.205V126.471H440.558V133.824ZM440.558 141.176H433.205V133.824H440.558V141.176ZM440.558 148.529H433.205V141.176H440.558V148.529ZM447.911 148.529H440.558V141.176H447.911V148.529ZM455.264 148.529H447.911V141.176H455.264V148.529ZM455.264 141.176H447.911V133.824H455.264V141.176ZM447.911 133.824H440.558V126.471H447.911V133.824ZM447.911 141.176H440.558V133.824H447.911V141.176ZM389.088 97.0588H381.735V89.7059H389.088V97.0588ZM381.735 97.0588H374.382V89.7059H381.735V97.0588ZM374.382 97.0588H367.029V89.7059H374.382V97.0588ZM374.382 104.412H367.029V97.0588H374.382V104.412ZM374.382 111.765H367.029V104.412H374.382V111.765ZM484.705 52.9412H492.057V60.2941H484.705V52.9412ZM492.057 52.9412H499.41V60.2941H492.057V52.9412ZM499.41 52.9412H506.763V60.2941H499.41V52.9412ZM506.763 52.9412H514.116V60.2941H506.763V52.9412ZM506.763 60.2941H514.116V67.6471H506.763V60.2941ZM506.763 67.6471H514.116V75H506.763V67.6471ZM499.41 67.6471H506.763V75H499.41V67.6471ZM492.057 67.6471H499.41V75H492.057V67.6471ZM492.057 60.2941H499.41V67.6471H492.057V60.2941ZM484.705 60.2941H492.057V67.6471H484.705V60.2941ZM499.41 60.2941H506.763V67.6471H499.41V60.2941ZM484.705 67.6471H492.057V75H484.705V67.6471ZM484.705 75H492.057V82.3529H484.705V75ZM484.705 82.3529H492.057V89.7059H484.705V82.3529ZM492.057 82.3529H499.41V89.7059H492.057V82.3529ZM499.41 82.3529H506.763V89.7059H499.41V82.3529ZM506.763 82.3529H514.116V89.7059H506.763V82.3529ZM506.763 75H514.116V82.3529H506.763V75ZM499.41 75H506.763V82.3529H499.41V75ZM492.057 75H499.41V82.3529H492.057V75ZM484.705 89.7059H492.057V97.0588H484.705V89.7059ZM492.057 89.7059H499.41V97.0588H492.057V89.7059ZM499.41 89.7059H506.763V97.0588H499.41V89.7059ZM484.705 104.412H492.057V111.765H484.705V104.412ZM484.705 97.0588H492.057V104.412H484.705V97.0588ZM499.41 192.647H506.763V200H499.41V192.647ZM492.057 192.647H499.41V200H492.057V192.647ZM484.705 185.294H492.057V192.647H484.705V185.294ZM484.705 177.941H492.057V185.294H484.705V177.941ZM484.705 192.647H492.057V200H484.705V192.647ZM521.469 89.7059H528.822V97.0588H521.469V89.7059ZM506.763 89.7059H514.116V97.0588H506.763V89.7059ZM528.822 89.7059H536.175V97.0588H528.822V89.7059ZM536.175 89.7059H543.528V97.0588H536.175V89.7059ZM543.528 89.7059H550.881V97.0588H543.528V89.7059ZM550.881 89.7059H558.234V97.0588H550.881V89.7059ZM558.234 97.0588H565.587V104.412H558.234V97.0588ZM550.881 97.0588H558.234V104.412H550.881V97.0588ZM550.881 104.412H558.234V111.765H550.881V104.412ZM565.587 97.0588H572.94V104.412H565.587V97.0588ZM565.587 104.412H572.94V111.765H565.587V104.412ZM558.234 104.412H565.587V111.765H558.234V104.412ZM550.881 111.765H558.234V119.118H550.881V111.765ZM543.528 111.765H550.881V119.118H543.528V111.765ZM558.234 111.765H565.587V119.118H558.234V111.765ZM565.587 111.765H572.94V119.118H565.587V111.765ZM572.94 111.765H580.293V119.118H572.94V111.765ZM572.94 119.118H580.293V126.471H572.94V119.118ZM572.94 126.471H580.293V133.824H572.94V126.471ZM572.94 133.824H580.293V141.176H572.94V133.824ZM572.94 141.176H580.293V148.529H572.94V141.176ZM572.94 148.529H580.293V155.882H572.94V148.529ZM572.94 155.882H580.293V163.235H572.94V155.882ZM572.94 163.235H580.293V170.588H572.94V163.235ZM572.94 170.588H580.293V177.941H572.94V170.588ZM565.587 170.588H572.94V177.941H565.587V170.588ZM565.587 177.941H572.94V185.294H565.587V177.941ZM565.587 185.294H572.94V192.647H565.587V185.294ZM558.234 185.294H565.587V192.647H558.234V185.294ZM550.881 185.294H558.234V192.647H550.881V185.294ZM543.528 177.941H550.881V185.294H543.528V177.941ZM543.528 170.588H550.881V177.941H543.528V170.588ZM550.881 170.588H558.234V177.941H550.881V170.588ZM550.881 177.941H558.234V185.294H550.881V177.941ZM558.234 177.941H565.587V185.294H558.234V177.941ZM558.234 170.588H565.587V177.941H558.234V170.588ZM558.234 163.235H565.587V170.588H558.234V163.235ZM550.881 163.235H558.234V170.588H550.881V163.235ZM550.881 155.882H558.234V163.235H550.881V155.882ZM550.881 148.529H558.234V155.882H550.881V148.529ZM550.881 141.176H558.234V148.529H550.881V141.176ZM550.881 133.824H558.234V141.176H550.881V133.824ZM550.881 126.471H558.234V133.824H550.881V126.471ZM550.881 119.118H558.234V126.471H550.881V119.118ZM558.234 119.118H565.587V126.471H558.234V119.118ZM558.234 126.471H565.587V133.824H558.234V126.471ZM558.234 133.824H565.587V141.176H558.234V133.824ZM558.234 141.176H565.587V148.529H558.234V141.176ZM558.234 148.529H565.587V155.882H558.234V148.529ZM558.234 155.882H565.587V163.235H558.234V155.882ZM565.587 163.235H572.94V170.588H565.587V163.235ZM565.587 155.882H572.94V163.235H565.587V155.882ZM565.587 148.529H572.94V155.882H565.587V148.529ZM565.587 141.176H572.94V148.529H565.587V141.176ZM565.587 133.824H572.94V141.176H565.587V133.824ZM565.587 126.471H572.94V133.824H565.587V126.471ZM565.587 119.118H572.94V126.471H565.587V119.118ZM543.528 185.294H550.881V192.647H543.528V185.294ZM543.528 192.647H550.881V200H543.528V192.647ZM550.881 192.647H558.234V200H550.881V192.647ZM536.175 192.647H543.528V200H536.175V192.647ZM528.822 192.647H536.175V200H528.822V192.647ZM521.469 192.647H528.822V200H521.469V192.647ZM514.116 192.647H521.469V200H514.116V192.647ZM506.763 192.647H514.116V200H506.763V192.647ZM506.763 185.294H514.116V192.647H506.763V185.294ZM499.41 185.294H506.763V192.647H499.41V185.294ZM492.057 185.294H499.41V192.647H492.057V185.294ZM492.057 126.471H499.41V133.824H492.057V126.471ZM492.057 119.118H499.41V126.471H492.057V119.118ZM484.705 111.765H492.057V119.118H484.705V111.765ZM492.057 104.412H499.41V111.765H492.057V104.412ZM499.41 97.0588H506.763V104.412H499.41V97.0588ZM506.763 97.0588H514.116V104.412H506.763V97.0588ZM514.116 97.0588H521.469V104.412H514.116V97.0588ZM514.116 104.412H521.469V111.765H514.116V104.412ZM514.116 111.765H521.469V119.118H514.116V111.765ZM506.763 111.765H514.116V119.118H506.763V111.765ZM499.41 111.765H506.763V119.118H499.41V111.765ZM506.763 119.118H514.116V126.471H506.763V119.118ZM506.763 126.471H514.116V133.824H506.763V126.471ZM506.763 133.824H514.116V141.176H506.763V133.824ZM514.116 177.941H521.469V185.294H514.116V177.941ZM521.469 177.941H528.822V185.294H521.469V177.941ZM528.822 177.941H536.175V185.294H528.822V177.941ZM536.175 177.941H543.528V185.294H536.175V177.941ZM536.175 185.294H543.528V192.647H536.175V185.294ZM528.822 185.294H536.175V192.647H528.822V185.294ZM521.469 185.294H528.822V192.647H521.469V185.294ZM514.116 185.294H521.469V192.647H514.116V185.294ZM506.763 177.941H514.116V185.294H506.763V177.941ZM499.41 177.941H506.763V185.294H499.41V177.941ZM499.41 126.471H506.763V133.824H499.41V126.471ZM499.41 119.118H506.763V126.471H499.41V119.118ZM499.41 104.412H506.763V111.765H499.41V104.412ZM506.763 104.412H514.116V111.765H506.763V104.412ZM521.469 97.0588H528.822V104.412H521.469V97.0588ZM528.822 97.0588H536.175V104.412H528.822V97.0588ZM536.175 97.0588H543.528V104.412H536.175V97.0588ZM543.528 97.0588H550.881V104.412H543.528V97.0588ZM543.528 104.412H550.881V111.765H543.528V104.412ZM536.175 104.412H543.528V111.765H536.175V104.412ZM528.822 104.412H536.175V111.765H528.822V104.412ZM521.469 104.412H528.822V111.765H521.469V104.412ZM492.057 97.0588H499.41V104.412H492.057V97.0588ZM492.057 177.941H499.41V185.294H492.057V177.941ZM492.057 111.765H499.41V119.118H492.057V111.765ZM484.705 119.118H492.057V126.471H484.705V119.118ZM484.705 126.471H492.057V133.824H484.705V126.471ZM484.705 170.588H492.057V177.941H484.705V170.588ZM492.057 170.588H499.41V177.941H492.057V170.588ZM499.41 170.588H506.763V177.941H499.41V170.588ZM506.763 170.588H514.116V177.941H506.763V170.588ZM499.41 133.824H506.763V141.176H499.41V133.824ZM492.057 133.824H499.41V141.176H492.057V133.824ZM484.705 133.824H492.057V141.176H484.705V133.824ZM484.705 141.176H492.057V148.529H484.705V141.176ZM484.705 148.529H492.057V155.882H484.705V148.529ZM484.705 155.882H492.057V163.235H484.705V155.882ZM492.057 155.882H499.41V163.235H492.057V155.882ZM492.057 163.235H499.41V170.588H492.057V163.235ZM499.41 163.235H506.763V170.588H499.41V163.235ZM484.705 163.235H492.057V170.588H484.705V163.235ZM506.763 163.235H514.116V170.588H506.763V163.235ZM506.763 155.882H514.116V163.235H506.763V155.882ZM506.763 148.529H514.116V155.882H506.763V148.529ZM506.763 141.176H514.116V148.529H506.763V141.176ZM499.41 141.176H506.763V148.529H499.41V141.176ZM492.057 141.176H499.41V148.529H492.057V141.176ZM492.057 148.529H499.41V155.882H492.057V148.529ZM499.41 155.882H506.763V163.235H499.41V155.882ZM499.41 148.529H506.763V155.882H499.41V148.529Z" fill="white"/>
</g>
<defs>
<clipPath id="clip0_50_9">
<rect width="625" height="241" fill="white"/>
</clipPath>
</defs>
</svg>
