<svg width="515" height="234" viewBox="0 0 515 234" fill="none" xmlns="http://www.w3.org/2000/svg">
<g clip-path="url(#clip0_66_2)">
<path d="M0 53H515V209C515 222.807 503.807 234 490 234H25C11.1929 234 0 222.807 0 209V53Z" fill="#F8331D"/>
<path d="M85 159.5V143L101.5 126.5H167.5L134.5 159.5H85ZM35.5 209L19 192.5V146.352V126.5L68.5 77H167.5V93.5L151 110H85L52 143V176H134.5L167.5 143V192.5L151 209H35.5ZM180.648 209V197.398V192.5L230.148 143L180.648 93.5V77H213.648L263.148 126.5H312.648V159.5H263.148L246.648 176H312.648L329.148 192.5V209H180.648ZM263.148 110L230.148 77H329.148V93.5L312.648 110H263.148ZM342.297 209V139.648V110L375.297 143V209H342.297ZM457.797 209L342.297 93.5V81.8984V77H375.297L457.797 159.5V77H490.797V209H457.797Z" fill="white"/>
<path d="M43.4 40H15.05C7.05 40 4 36.55 4 31.5V13.3C4 8.25 7.05 4.8 15.05 4.8H43.4V10H15.05C12.05 10 10.65 11.15 10.65 13.25V31.55C10.65 33.65 12.05 34.8 15.05 34.8H43.4V40ZM117.227 40H81.9766V4.8H88.6766V34.8H117.227V40ZM189.019 40H165.769C157.769 40 154.719 36.55 154.719 31.5V4.8H161.369V31.55C161.369 33.65 162.769 34.8 165.769 34.8H187.619C190.619 34.8 192.019 33.65 192.019 31.55V4.8H198.669V31.5C198.669 36.55 197.019 40 189.019 40ZM269.066 40H238.466V34.8H269.066C272.066 34.8 273.466 33.65 273.466 31.55V27.1C273.466 25 272.066 23.85 269.066 23.85H248.366C240.366 23.85 237.316 20.4 237.316 15.35V13.3C237.316 8.25 240.366 4.8 248.366 4.8H278.166V10H248.366C245.366 10 243.966 11.15 243.966 13.25V15.4C243.966 17.5 245.366 18.65 248.366 18.65H269.066C277.066 18.65 280.116 22.1 280.116 27.15V31.5C280.116 36.55 277.066 40 269.066 40ZM340.402 40H333.752V10H315.302V4.8H358.352V10H340.402V40ZM432.013 40H395.813V4.8H432.013V10H402.463V18.8H430.513V24H402.463V34.8H432.013V40ZM511.208 40H504.108L495.858 24.3H477.308V40H470.658V4.8H500.558C508.558 4.8 511.608 8.25 511.608 13.3V15.8C511.608 20.35 509.158 23.6 502.908 24.2L511.208 40ZM504.958 15.85V13.25C504.958 11.15 503.558 10 500.558 10H477.308V19.1H500.558C503.558 19.1 504.958 17.95 504.958 15.85Z" fill="white"/>
</g>
<defs>
<clipPath id="clip0_66_2">
<rect width="515" height="234" fill="white"/>
</clipPath>
</defs>
</svg>
